<?xml version="1.0" standalone="no"?>
<!DOCTYPE svg PUBLIC "-//W3C//DTD SVG 20010904//EN"
 "http://www.w3.org/TR/2001/REC-SVG-20010904/DTD/svg10.dtd">
<svg version="1.0" xmlns="http://www.w3.org/2000/svg"
 width="700.000000pt" height="700.000000pt" viewBox="0 0 700.000000 700.000000"
 preserveAspectRatio="xMidYMid meet">
<metadata>
Created by potrace 1.14, written by Peter Selinger 2001-2017
</metadata>
<g transform="translate(0.000000,700.000000) scale(0.100000,-0.100000)"
fill="#000000" stroke="none">
<path d="M1859 5175 c-2 -13 -3 -6 28 -144 26 -115 26 -120 31 -631 11 -1211
6 -2040 -13 -2270 -3 -44 -16 -240 -19 -290 l-1 -25 380 0 c235 1 379 5 378
10 -7 48 -16 93 -33 165 -18 82 -19 140 -16 1525 2 1432 3 1441 24 1535 12 52
21 104 22 115 0 20 -7 20 -390 20 -254 0 -390 -3 -391 -10z"/>
<path d="M3565 5153 c8 -52 20 -144 30 -228 2 -16 11 -86 21 -155 9 -69 18
-134 19 -145 1 -11 3 -24 4 -28 0 -4 36 25 79 66 42 40 118 111 167 157 86 81
176 166 234 220 15 14 54 51 88 83 34 31 58 58 55 58 -4 1 -163 2 -354 3
l-347 1 4 -32z"/>
<path d="M3168 3802 c-73 -86 -151 -179 -173 -207 -22 -27 -48 -58 -57 -69
-22 -24 -32 -69 -23 -112 6 -34 81 -128 274 -344 42 -47 90 -100 106 -119 17
-19 35 -39 40 -45 58 -65 167 -190 235 -271 47 -55 110 -127 141 -160 125
-133 174 -202 214 -300 35 -87 40 -208 11 -293 -10 -29 -15 -56 -11 -60 8 -8
1215 -10 1215 -2 0 3 -10 16 -23 30 -12 14 -119 138 -236 275 -118 138 -231
268 -250 291 -20 22 -47 53 -61 70 -53 63 -144 169 -150 174 -3 3 -59 68 -125
145 -65 77 -122 142 -125 145 -3 3 -41 48 -85 100 -44 52 -94 110 -111 130
-26 29 -122 140 -267 310 -96 112 -143 166 -147 170 -3 3 -28 32 -55 65 -28
32 -57 66 -65 75 -8 9 -28 32 -44 51 -16 19 -44 51 -62 71 l-33 37 -133 -157z"/>
</g>
</svg>
